<svg width="20" height="24" viewBox="0 0 20 24" fill="none" xmlns="http://www.w3.org/2000/svg">
<path d="M1.49965 8.00372C0.67142 8.00372 0 8.67514 0 9.50337V16.5017C0 17.3299 0.67142 18.0014 1.49965 18.0014C2.32788 18.0014 2.9993 17.3299 2.9993 16.5017V9.50337C2.9993 8.67514 2.32788 8.00372 1.49965 8.00372Z" fill="#FB8F53"/>
<path d="M18.4957 8.00372C17.6675 8.00372 16.9961 8.67514 16.9961 9.50337V16.5017C16.9961 17.3299 17.6675 18.0014 18.4957 18.0014C19.324 18.0014 19.9954 17.3299 19.9954 16.5017V9.50337C19.9954 8.67514 19.324 8.00372 18.4957 8.00372Z" fill="#FB8F53"/>
<path d="M15.4963 8.00372H4.49892C4.22285 8.00372 3.99902 8.22755 3.99902 8.50362V16.5017C3.99879 17.6896 4.83466 18.7136 5.99857 18.9512V22.5003C5.99857 23.3285 6.66999 24 7.49822 24C8.32645 24 8.99787 23.3285 8.99787 22.5003V19.0011H10.9974V22.5003C10.9974 23.3285 11.6688 24 12.4971 24C13.3253 24 13.9967 23.3285 13.9967 22.5003V18.9512C15.1606 18.7136 15.9965 17.6896 15.9963 16.5017V8.50362C15.9962 8.22755 15.7724 8.00372 15.4963 8.00372Z" fill="#FB8F53"/>
<path d="M13.6319 2.07715L14.8506 0.859439C15.0491 0.667625 15.0546 0.351199 14.8628 0.152589C14.671 -0.045974 14.3546 -0.0514571 14.156 0.14031C14.1518 0.144341 14.1477 0.148418 14.1437 0.152589L12.7241 1.57229C10.9853 0.81698 9.01106 0.81698 7.27231 1.57229L5.85266 0.151605C5.6541 -0.0402097 5.33762 -0.0346798 5.14581 0.163883C4.95873 0.357619 4.95873 0.664719 5.14581 0.858408L6.36352 2.07711C4.87901 3.05938 3.98991 4.72403 3.99909 6.50407C3.99909 6.78015 4.22292 7.00397 4.49899 7.00397H15.4964C15.7725 7.00397 15.9963 6.78015 15.9963 6.50407C16.0055 4.72408 15.1164 3.05942 13.6319 2.07715Z" fill="#FB8F53"/>
<path d="M7.61123 5.00444C7.88731 5.00444 8.11112 4.78062 8.11112 4.50454C8.11112 4.22845 7.88731 4.00464 7.61123 4.00464C7.33514 4.00464 7.11133 4.22845 7.11133 4.50454C7.11133 4.78062 7.33514 5.00444 7.61123 5.00444Z" fill="#FAFAFA"/>
<path d="M12.6103 5.00444C12.8863 5.00444 13.1102 4.78062 13.1102 4.50454C13.1102 4.22845 12.8863 4.00464 12.6103 4.00464C12.3342 4.00464 12.1104 4.22845 12.1104 4.50454C12.1104 4.78062 12.3342 5.00444 12.6103 5.00444Z" fill="#FAFAFA"/>
</svg>
