<svg width="24" height="24" viewBox="0 0 24 24" fill="none" xmlns="http://www.w3.org/2000/svg">
<path d="M5.67188 0V4.45312C5.67188 8.54662 8.34262 12.0267 12 13.3049C15.6574 12.0267 18.3281 8.54662 18.3281 4.45312V0H5.67188Z" fill="#FB8F53"/>
<path d="M5.36901 9.17896C3.0878 7.2832 1.62206 4.49915 1.42823 1.40625H4.26562V0H0V0.703125C0 2.13356 0.241219 3.53615 0.717 4.8719C1.17684 6.16289 1.84486 7.36312 2.70248 8.43928C3.97176 10.032 5.62148 11.2889 7.47126 12.0963C6.61223 11.2465 5.90142 10.2595 5.36901 9.17896Z" fill="#FB8F53"/>
<path d="M19.735 0V1.40625H22.5724C22.3785 4.49915 20.9128 7.2832 18.6316 9.17896C18.0992 10.2595 17.3884 11.2465 16.5293 12.0963C18.3791 11.2889 20.0288 10.032 21.2981 8.43928C22.1557 7.36312 22.8238 6.16289 23.2836 4.8719C23.7594 3.53615 24.0006 2.13356 24.0006 0.703125V0H19.735Z" fill="#FB8F53"/>
<path d="M17.3906 22.5939V16.9689H13.4062V14.2529C13.1003 14.3929 12.7861 14.52 12.4639 14.6326L12 14.7947L11.5361 14.6326C11.2139 14.52 10.8997 14.3929 10.5937 14.2529V16.9689H6.60937V22.5939H5.20312V24.0001H18.7969V22.5939H17.3906ZM14.1094 20.7189H9.89062V19.3126H14.1094V20.7189Z" fill="#FB8F53"/>
<path d="M13.3337 2.5L10.667 9.5" stroke="white"/>
<path d="M14.2227 4.25L16.0004 6L14.2227 7.75" stroke="white"/>
<path d="M9.77832 7.75L8.00054 6L9.77832 4.25" stroke="white"/>
</svg>
