<svg width="24" height="24" viewBox="0 0 24 24" fill="none" xmlns="http://www.w3.org/2000/svg">
<path d="M1.75781 13.7578C2.47856 13.7578 3.09764 13.3238 3.36895 12.7031H5.10881C5.27053 12.1704 5.56627 11.6856 5.96269 11.2969H3.36895C3.09769 10.6762 2.47856 10.2422 1.75781 10.2422C0.786984 10.2422 0 11.0292 0 12C0 12.9708 0.786984 13.7578 1.75781 13.7578Z" fill="#FB8F53"/>
<path d="M22.2428 10.2422C21.522 10.2422 20.903 10.6762 20.6316 11.2969H18.043C18.4378 11.6843 18.7329 12.1681 18.8937 12.7031H20.6316C20.9029 13.3238 21.522 13.7578 22.2427 13.7578C23.2136 13.7578 24.0005 12.9708 24.0005 12C24.0005 11.0292 23.2136 10.2422 22.2428 10.2422Z" fill="#FB8F53"/>
<path d="M4.97895 5.97274L7.52825 8.52204C7.83003 8.15848 8.19448 7.84868 8.60576 7.61084L5.97336 4.97838C6.22043 4.34764 6.08956 3.60303 5.57989 3.09335C4.8934 2.40687 3.78045 2.40687 3.09396 3.09335C2.40748 3.77984 2.40748 4.89279 3.09396 5.57928C3.60359 6.08895 4.3482 6.21987 4.97895 5.97274Z" fill="#FB8F53"/>
<path d="M19.0225 18.0273L17.445 16.4497C16.9965 16.7212 16.4782 16.8884 15.9238 16.9173L18.0282 19.0216C17.7811 19.6524 17.912 20.397 18.4217 20.9067C19.1081 21.5932 20.2211 21.5932 20.9076 20.9067C21.5941 20.2202 21.5941 19.1072 20.9076 18.4208C20.3979 17.9111 19.6533 17.7802 19.0225 18.0273Z" fill="#FB8F53"/>
<path d="M11.2969 3.36895V7.14183C11.796 7.23234 12.2733 7.41853 12.7031 7.68759V3.36895C13.3238 3.09769 13.7578 2.47856 13.7578 1.75781C13.7578 0.786984 12.9708 0 12 0C11.0292 0 10.2422 0.786984 10.2422 1.75781C10.2422 2.47856 10.6762 3.09764 11.2969 3.36895Z" fill="#FB8F53"/>
<path d="M12.7031 20.631V16.9219H11.2969V20.631C10.6762 20.9023 10.2422 21.5214 10.2422 22.2422C10.2422 23.213 11.0292 24 12 24C12.9708 24 13.7578 23.213 13.7578 22.2422C13.7578 21.5214 13.3238 20.9024 12.7031 20.631Z" fill="#FB8F53"/>
<path d="M16.105 8.88989L21.6007 3.39413C21.7997 3.47227 22.0161 3.51563 22.2427 3.51563C23.2135 3.51563 24.0005 2.72864 24.0005 1.75781C24.0005 0.786984 23.2135 0 22.2427 0C21.2719 0 20.4849 0.786984 20.4849 1.75781C20.4849 1.98445 20.5282 2.20088 20.6064 2.39981L14.8418 8.16436C15.3057 8.307 15.7395 8.55178 16.105 8.88989Z" fill="#FB8F53"/>
<path d="M6.55594 16.4496L2.39977 20.6058C2.20083 20.5277 1.98445 20.4844 1.75781 20.4844C0.786984 20.4844 0 21.2714 0 22.2422C0 23.213 0.786984 24 1.75781 24C2.72864 24 3.51562 23.213 3.51562 22.2422C3.51562 22.0155 3.47227 21.7991 3.39412 21.6002L8.07708 16.9172C7.52273 16.8883 7.00444 16.7211 6.55594 16.4496Z" fill="#FB8F53"/>
<path d="M17.625 13.6406C17.625 12.804 17.0623 12.0615 16.2565 11.835C15.9669 11.7537 15.7612 11.497 15.7447 11.1967C15.7192 10.7315 15.526 10.2962 15.2008 9.97106C14.6946 9.46486 13.9318 9.29048 13.2572 9.52692C12.9904 9.62039 12.6937 9.54511 12.5039 9.33581C12.0129 8.79473 11.3167 8.48438 10.5938 8.48438C9.17217 8.48438 8.01562 9.64092 8.01562 11.0625C8.01562 11.1082 8.01689 11.1545 8.01947 11.2002C8.03639 11.5038 7.85634 11.7839 7.57308 11.8944C6.85645 12.1741 6.375 12.8758 6.375 13.6406C6.375 14.6745 7.21613 15.5156 8.25 15.5156H15.75C16.7839 15.5156 17.625 14.6745 17.625 13.6406Z" fill="#FB8F53"/>
</svg>
