<svg width="24" height="24" viewBox="0 0 24 24" fill="none" xmlns="http://www.w3.org/2000/svg">
<path d="M23.2942 18.8438H17.6473C17.2574 18.8438 16.9414 19.1586 16.9414 19.5469V23.2969C16.9414 23.6852 17.2574 24.0001 17.6473 24.0001H23.2942C23.684 24.0001 24 23.6852 24 23.2969V19.5469C24 19.1586 23.684 18.8438 23.2942 18.8438Z" fill="#FB8F53"/>
<path d="M14.8235 18.8438H9.17657C8.78674 18.8438 8.4707 19.1586 8.4707 19.5469V23.2969C8.4707 23.6852 8.78674 24.0001 9.17657 24.0001H14.8235C15.2133 24.0001 15.5293 23.6852 15.5293 23.2969V19.5469C15.5293 19.1586 15.2133 18.8438 14.8235 18.8438Z" fill="#FB8F53"/>
<path d="M6.35276 18.8438H0.705862C0.316038 18.8438 0 19.1586 0 19.5469V23.2969C0 23.6852 0.316038 24.0001 0.705862 24.0001H6.35276C6.74258 24.0001 7.05862 23.6852 7.05862 23.2969V19.5469C7.05862 19.1586 6.74258 18.8438 6.35276 18.8438Z" fill="#FB8F53"/>
<path d="M6.58848 12.1875C7.36818 12.1875 8.00021 11.5579 8.00021 10.7812V5.39062C8.00021 5.00231 8.31624 4.6875 8.70607 4.6875H16.9411V2.57812C16.9411 2.18981 16.6251 1.875 16.2353 1.875H11.8824L10.6825 0.28125C10.5492 0.104203 10.34 0 10.1178 0H5.88262C5.4928 0 5.17676 0.314812 5.17676 0.703125V10.7812C5.17676 11.5579 5.80879 12.1875 6.58848 12.1875Z" fill="#FB8F53"/>
<path d="M9.4111 10.7813C9.4111 11.2934 9.27233 11.7735 9.03125 12.1876H17.4109C18.1906 12.1876 18.8226 11.558 18.8226 10.7813V6.79694C18.8226 6.40862 18.5066 6.09381 18.1167 6.09381H9.4111V10.7813Z" fill="#FB8F53"/>
<path d="M4.23497 16.2187H11.2936V17.4375H12.7053V16.2187H19.7639V17.4375H21.1757V15.5156C21.1757 15.1273 20.8596 14.8125 20.4698 14.8125H12.7053V13.5938H11.2936V14.8125H3.5291C3.13928 14.8125 2.82324 15.1273 2.82324 15.5156V17.4375H4.23497V16.2187Z" fill="#FB8F53"/>
</svg>
