<svg width="24" height="24" viewBox="0 0 24 24" fill="none" xmlns="http://www.w3.org/2000/svg">
<path d="M17.2734 12.625C15.9808 12.625 14.9297 13.6761 14.9297 14.9688C14.9297 16.2614 15.9808 17.3125 17.2734 17.3125C18.5661 17.3125 19.6562 16.2614 19.6562 14.9688C19.6562 13.6761 18.5661 12.625 17.2734 12.625Z" fill="#FB8F53"/>
<path d="M20.2422 2H14.3438C13.3745 2 12.5859 2.82758 12.5859 3.79688V6.17969C12.5859 6.94359 13.0757 7.59531 13.7578 7.83738V9.69531C13.7578 9.93219 13.9003 10.1462 14.1195 10.2366C14.3355 10.3267 14.5889 10.2787 14.758 10.1096L16.9301 7.9375H20.2422C21.2115 7.9375 22 7.14898 22 6.17969V3.79688C22 2.82758 21.2115 2 20.2422 2Z" fill="#FB8F53"/>
<path d="M11.477 21.1394C11.5547 20.6145 11.7232 20.1246 11.9309 19.6562H2V21.4141C2 21.7379 2.26207 22 2.58594 22H11.5707C11.4725 21.7271 11.4337 21.4337 11.477 21.1394Z" fill="#FB8F53"/>
<path d="M13.7578 16.1406H3.75781C2.78852 16.1406 2 16.9291 2 17.8984V18.4844H12.6141C12.9852 17.9963 13.4313 17.5766 13.9319 17.225C13.8206 16.883 13.7578 16.5193 13.7578 16.1406Z" fill="#FB8F53"/>
<path d="M21.9496 21.311C21.7207 19.7634 20.6843 18.4757 19.329 17.808C18.7495 18.2288 18.043 18.4844 17.2735 18.4844C16.5041 18.4844 15.7976 18.2288 15.2181 17.808C13.8628 18.4757 12.8655 19.7635 12.6366 21.311C12.5833 21.6711 12.8555 22.0001 13.2196 22.0001H21.3666C21.7307 22.0001 22.0029 21.6712 21.9496 21.311Z" fill="#FB8F53"/>
<path d="M8.48438 5.59375C7.19176 5.59375 6.14062 6.64488 6.14062 7.9375C6.14062 9.23012 7.19176 10.2812 8.48438 10.2812C9.77699 10.2812 10.8281 9.23012 10.8281 7.9375C10.8281 6.64488 9.77699 5.59375 8.48438 5.59375Z" fill="#FB8F53"/>
<path d="M13.1215 14.2797C12.8926 12.7321 11.8953 11.4444 10.54 10.7767C9.96043 11.1975 9.2539 11.4531 8.48449 11.4531C7.71507 11.4531 7.00855 11.1975 6.42906 10.7767C5.07371 11.4444 4.03738 12.7321 3.80843 14.2797C3.75515 14.6399 4.02738 14.9687 4.39144 14.9687H12.5385C12.9026 14.9687 13.1748 14.6399 13.1215 14.2797Z" fill="#FB8F53"/>
</svg>
