<svg width="24" height="18" viewBox="0 0 24 18" fill="none" xmlns="http://www.w3.org/2000/svg">
<path d="M22.4543 0H1.62964C0.747727 0 0 0.717454 0 1.59936V16.424C0 17.3077 0.732818 18 1.62964 18H22.4543C23.338 18 24 17.3077 24 16.424V1.59936C24 0.702545 23.338 0 22.4543 0ZM5.47509 0.911364C5.79818 0.911364 6.06091 1.17418 6.06091 1.49718C6.06091 1.82018 5.79809 2.083 5.47509 2.083C5.15209 2.083 4.88927 1.82018 4.88927 1.49718C4.88927 1.17418 5.152 0.911364 5.47509 0.911364ZM3.79327 0.911364C4.11636 0.911364 4.37909 1.17418 4.37909 1.49718C4.37909 1.82018 4.11627 2.083 3.79327 2.083C3.47027 2.083 3.20745 1.82018 3.20745 1.49718C3.20745 1.17418 3.47018 0.911364 3.79327 0.911364ZM2.11145 0.911364C2.43455 0.911364 2.69727 1.17418 2.69727 1.49718C2.69727 1.82018 2.43445 2.083 2.11145 2.083C1.78845 2.083 1.52564 1.82018 1.52564 1.49718C1.52564 1.17418 1.78836 0.911364 2.11145 0.911364ZM22.5455 16.5C22.5455 16.5251 22.5554 16.5455 22.5303 16.5455H22.4848H1.53027H1.45455V16.5V3.09091V3.04545C1.45455 3.02036 1.50518 3 1.53027 3H22.5303C22.5554 3 22.5455 3.02036 22.5455 3.04545V16.5ZM21.9899 2.09091H15.6263C15.3032 2.09091 15.0405 1.82636 15.0405 1.50118C15.0405 1.176 15.3033 0.911455 15.6263 0.911455L21.9899 0.913455C22.313 0.913455 22.5757 1.17709 22.5757 1.50127C22.5757 1.82636 22.3129 2.09091 21.9899 2.09091Z" fill="#FB8F53"/>
<path d="M3.62683 6.63645H9.99047C10.3136 6.63645 10.5763 6.37163 10.5763 6.04608C10.5763 5.7219 10.3135 5.45799 9.99047 5.45799L3.62683 5.45581C3.30374 5.45581 3.04102 5.72063 3.04102 6.04608C3.04092 6.37163 3.30374 6.63645 3.62683 6.63645Z" fill="#FB8F53"/>
<path d="M9.99047 7.45799L3.62683 7.45581C3.30374 7.45581 3.04102 7.72063 3.04102 8.04608C3.04102 8.37163 3.30383 8.63645 3.62683 8.63645H9.99047C10.3136 8.63645 10.5763 8.37163 10.5763 8.04608C10.5763 7.72181 10.3135 7.45799 9.99047 7.45799Z" fill="#FB8F53"/>
<path d="M9.99047 9.45799L3.62683 9.45581C3.30374 9.45581 3.04102 9.72063 3.04102 10.0461C3.04102 10.3716 3.30383 10.6364 3.62683 10.6364H9.99047C10.3136 10.6364 10.5763 10.3716 10.5763 10.0461C10.5763 9.72181 10.3135 9.45799 9.99047 9.45799Z" fill="#FB8F53"/>
<path d="M9.99047 11.458L3.62683 11.4558C3.30374 11.4558 3.04102 11.7206 3.04102 12.0461C3.04102 12.3716 3.30383 12.6364 3.62683 12.6364H9.99047C10.3136 12.6364 10.5763 12.3716 10.5763 12.0461C10.5763 11.7218 10.3135 11.458 9.99047 11.458Z" fill="#FB8F53"/>
<path d="M19.8939 5.27271H13.1666C12.54 5.27271 12 5.78243 12 6.40907V6.45452V13.1363V13.1818C12 13.7843 12.5187 14.2727 13.1212 14.2727H13.1666H19.8485H19.8939C20.5205 14.2727 21 13.763 21 13.1363V6.40907C21 5.78243 20.5205 5.27271 19.8939 5.27271Z" fill="#FB8F53"/>
</svg>
