<svg width="134" height="30" viewBox="0 0 134 30" fill="none" xmlns="http://www.w3.org/2000/svg">
<path d="M39.336 18.128C38.2373 18.128 37.2773 17.8933 36.456 17.424C35.6453 16.944 35.0213 16.2667 34.584 15.392C34.1467 14.5173 33.928 13.4827 33.928 12.288C33.928 11.104 34.1467 10.0747 34.584 9.2C35.0213 8.32533 35.6453 7.65333 36.456 7.184C37.2773 6.71467 38.2373 6.48 39.336 6.48C40.1147 6.48 40.8347 6.60267 41.496 6.848C42.168 7.08267 42.7333 7.42933 43.192 7.888L42.616 9.104C42.0827 8.66667 41.5547 8.352 41.032 8.16C40.52 7.95733 39.96 7.856 39.352 7.856C38.168 7.856 37.2507 8.24 36.6 9.008C35.96 9.776 35.64 10.8693 35.64 12.288C35.64 13.7173 35.96 14.8213 36.6 15.6C37.2507 16.368 38.168 16.752 39.352 16.752C39.96 16.752 40.52 16.656 41.032 16.464C41.5547 16.2613 42.0827 15.9413 42.616 15.504L43.192 16.72C42.7333 17.1787 42.168 17.5307 41.496 17.776C40.8347 18.0107 40.1147 18.128 39.336 18.128ZM52.3413 9.936V18H50.7413V16.624C50.5066 17.104 50.1546 17.472 49.6853 17.728C49.2266 17.984 48.6879 18.112 48.0693 18.112C47.3546 18.112 46.7253 17.9413 46.1813 17.6C45.6479 17.2587 45.2319 16.7787 44.9333 16.16C44.6346 15.5307 44.4853 14.8 44.4853 13.968C44.4853 13.136 44.6346 12.4 44.9333 11.76C45.2426 11.12 45.6693 10.624 46.2133 10.272C46.7573 9.92 47.3759 9.744 48.0693 9.744C48.6879 9.744 49.2266 9.87733 49.6853 10.144C50.1439 10.4 50.4959 10.768 50.7413 11.248V9.936H52.3413ZM48.4533 16.832C49.1786 16.832 49.7386 16.5813 50.1333 16.08C50.5386 15.568 50.7413 14.8533 50.7413 13.936C50.7413 13.008 50.5386 12.2933 50.1333 11.792C49.7386 11.2907 49.1733 11.04 48.4373 11.04C47.7119 11.04 47.1413 11.3013 46.7253 11.824C46.3199 12.336 46.1173 13.0507 46.1173 13.968C46.1173 14.8747 46.3199 15.5787 46.7253 16.08C47.1413 16.5813 47.7173 16.832 48.4533 16.832ZM58.7313 9.744C58.9766 9.744 59.2326 9.78133 59.4993 9.856L59.4673 11.328C59.1793 11.2213 58.8646 11.168 58.5233 11.168C57.7873 11.168 57.2326 11.392 56.8593 11.84C56.4966 12.2773 56.3153 12.832 56.3153 13.504V18H54.7153V12.208C54.7153 11.3653 54.6726 10.608 54.5872 9.936H56.0913L56.2353 11.392C56.4486 10.8587 56.7793 10.4533 57.2273 10.176C57.6753 9.888 58.1766 9.744 58.7313 9.744ZM67.4546 14H61.6946C61.748 15.888 62.6066 16.832 64.2706 16.832C65.1986 16.832 66.0466 16.528 66.8146 15.92L67.3106 17.072C66.948 17.392 66.484 17.648 65.9186 17.84C65.364 18.0213 64.804 18.112 64.2386 18.112C62.948 18.112 61.9346 17.744 61.1986 17.008C60.4626 16.2613 60.0946 15.2427 60.0946 13.952C60.0946 13.1307 60.2546 12.4 60.5746 11.76C60.9053 11.12 61.364 10.624 61.9506 10.272C62.5373 9.92 63.204 9.744 63.9506 9.744C65.0386 9.744 65.892 10.096 66.5106 10.8C67.14 11.504 67.4546 12.48 67.4546 13.728V14ZM63.9826 10.944C63.3746 10.944 62.8786 11.1253 62.4946 11.488C62.1106 11.8507 61.8653 12.368 61.7586 13.04H66.0306C65.9666 12.3573 65.7586 11.84 65.4066 11.488C65.0546 11.1253 64.58 10.944 63.9826 10.944ZM76.189 14H70.429C70.4823 15.888 71.341 16.832 73.005 16.832C73.933 16.832 74.781 16.528 75.549 15.92L76.045 17.072C75.6823 17.392 75.2183 17.648 74.653 17.84C74.0983 18.0213 73.5383 18.112 72.973 18.112C71.6823 18.112 70.669 17.744 69.933 17.008C69.197 16.2613 68.829 15.2427 68.829 13.952C68.829 13.1307 68.989 12.4 69.309 11.76C69.6397 11.12 70.0983 10.624 70.685 10.272C71.2717 9.92 71.9383 9.744 72.685 9.744C73.773 9.744 74.6263 10.096 75.245 10.8C75.8743 11.504 76.189 12.48 76.189 13.728V14ZM72.717 10.944C72.109 10.944 71.613 11.1253 71.229 11.488C70.845 11.8507 70.5997 12.368 70.493 13.04H74.765C74.701 12.3573 74.493 11.84 74.141 11.488C73.789 11.1253 73.3143 10.944 72.717 10.944ZM82.0594 9.744C82.3047 9.744 82.5607 9.78133 82.8274 9.856L82.7954 11.328C82.5074 11.2213 82.1927 11.168 81.8514 11.168C81.1154 11.168 80.5607 11.392 80.1874 11.84C79.8247 12.2773 79.6434 12.832 79.6434 13.504V18H78.0434V12.208C78.0434 11.3653 78.0007 10.608 77.9154 9.936H79.4194L79.5634 11.392C79.7767 10.8587 80.1074 10.4533 80.5554 10.176C81.0034 9.888 81.5047 9.744 82.0594 9.744ZM91.8286 18.112C91.018 18.112 90.3086 17.9413 89.7006 17.6C89.1033 17.2587 88.6446 16.7787 88.3246 16.16C88.0046 15.5307 87.8446 14.8 87.8446 13.968C87.8446 13.136 88.01 12.4 88.3406 11.76C88.682 11.12 89.1566 10.624 89.7646 10.272C90.3726 9.92 91.082 9.744 91.8926 9.744C92.458 9.744 93.002 9.84 93.5246 10.032C94.0473 10.2133 94.4686 10.464 94.7886 10.784L94.2926 11.952C93.5353 11.3547 92.7726 11.056 92.0046 11.056C91.226 11.056 90.618 11.312 90.1806 11.824C89.7433 12.3253 89.5246 13.0347 89.5246 13.952C89.5246 14.8693 89.7433 15.5787 90.1806 16.08C90.618 16.5707 91.226 16.816 92.0046 16.816C92.794 16.816 93.5566 16.5173 94.2926 15.92L94.7886 17.088C94.4473 17.408 94.01 17.6587 93.4766 17.84C92.954 18.0213 92.4046 18.112 91.8286 18.112ZM103.685 9.936V18H102.085V16.624C101.85 17.104 101.498 17.472 101.029 17.728C100.57 17.984 100.032 18.112 99.413 18.112C98.6983 18.112 98.069 17.9413 97.525 17.6C96.9917 17.2587 96.5757 16.7787 96.277 16.16C95.9783 15.5307 95.829 14.8 95.829 13.968C95.829 13.136 95.9783 12.4 96.277 11.76C96.5863 11.12 97.013 10.624 97.557 10.272C98.101 9.92 98.7197 9.744 99.413 9.744C100.032 9.744 100.57 9.87733 101.029 10.144C101.488 10.4 101.84 10.768 102.085 11.248V9.936H103.685ZM99.797 16.832C100.522 16.832 101.082 16.5813 101.477 16.08C101.882 15.568 102.085 14.8533 102.085 13.936C102.085 13.008 101.882 12.2933 101.477 11.792C101.082 11.2907 100.517 11.04 99.781 11.04C99.0557 11.04 98.485 11.3013 98.069 11.824C97.6637 12.336 97.461 13.0507 97.461 13.968C97.461 14.8747 97.6637 15.5787 98.069 16.08C98.485 16.5813 99.061 16.832 99.797 16.832ZM115.259 9.744C117.051 9.744 117.947 10.8213 117.947 12.976V18H116.331V13.056C116.331 12.3627 116.208 11.856 115.963 11.536C115.728 11.216 115.344 11.056 114.811 11.056C114.192 11.056 113.702 11.2693 113.339 11.696C112.987 12.1227 112.811 12.704 112.811 13.44V18H111.195V13.056C111.195 12.3627 111.072 11.856 110.827 11.536C110.592 11.216 110.208 11.056 109.675 11.056C109.056 11.056 108.566 11.2693 108.203 11.696C107.84 12.1227 107.659 12.704 107.659 13.44V18H106.059V12.208C106.059 11.3653 106.016 10.608 105.931 9.936H107.435L107.579 11.28C107.814 10.7893 108.15 10.4107 108.587 10.144C109.024 9.87733 109.536 9.744 110.123 9.744C111.371 9.744 112.187 10.2613 112.571 11.296C112.816 10.816 113.174 10.4373 113.643 10.16C114.123 9.88267 114.662 9.744 115.259 9.744ZM124.534 9.744C125.227 9.744 125.846 9.92 126.39 10.272C126.934 10.624 127.355 11.12 127.654 11.76C127.963 12.4 128.118 13.136 128.118 13.968C128.118 14.8 127.969 15.5307 127.67 16.16C127.371 16.7787 126.95 17.2587 126.406 17.6C125.862 17.9413 125.238 18.112 124.534 18.112C123.915 18.112 123.371 17.984 122.902 17.728C122.443 17.4613 122.097 17.0827 121.862 16.592V21.456H120.262V12.208C120.262 11.3653 120.219 10.608 120.134 9.936H121.638L121.798 11.424C122.011 10.8907 122.358 10.48 122.838 10.192C123.318 9.89333 123.883 9.744 124.534 9.744ZM124.166 16.832C124.891 16.832 125.457 16.5813 125.862 16.08C126.267 15.5787 126.47 14.8747 126.47 13.968C126.47 13.0507 126.267 12.336 125.862 11.824C125.457 11.3013 124.891 11.04 124.166 11.04C123.419 11.04 122.849 11.2907 122.454 11.792C122.059 12.2933 121.862 13.008 121.862 13.936C121.862 14.864 122.059 15.5787 122.454 16.08C122.859 16.5813 123.43 16.832 124.166 16.832Z" fill="#D2D2D6"/>
<path d="M40.4 26.664H37.616L37.04 28H36L38.576 22.304H39.416L42 28H40.968L40.4 26.664ZM40.056 25.864L39.008 23.424L37.96 25.864H40.056ZM42.616 22.304H45.088C45.7013 22.304 46.1787 22.4533 46.52 22.752C46.8613 23.0453 47.032 23.448 47.032 23.96C47.032 24.472 46.8587 24.8773 46.512 25.176C46.1707 25.4747 45.696 25.624 45.088 25.624H43.648V28H42.616V22.304ZM44.968 24.824C45.3253 24.824 45.5947 24.752 45.776 24.608C45.9627 24.4587 46.056 24.2453 46.056 23.968C46.056 23.6853 45.9653 23.472 45.784 23.328C45.6027 23.1787 45.3307 23.104 44.968 23.104H43.648V24.824H44.968ZM47.9441 22.304H50.4161C51.0295 22.304 51.5068 22.4533 51.8481 22.752C52.1895 23.0453 52.3601 23.448 52.3601 23.96C52.3601 24.472 52.1868 24.8773 51.8401 25.176C51.4988 25.4747 51.0241 25.624 50.4161 25.624H48.9761V28H47.9441V22.304ZM50.2961 24.824C50.6535 24.824 50.9228 24.752 51.1041 24.608C51.2908 24.4587 51.3841 24.2453 51.3841 23.968C51.3841 23.6853 51.2935 23.472 51.1121 23.328C50.9308 23.1787 50.6588 23.104 50.2961 23.104H48.9761V24.824H50.2961ZM53.2723 22.304H54.3043V27.152H56.9683V28H53.2723V22.304ZM57.7488 22.304H58.7808V28H57.7488V22.304ZM62.5984 28.072C62.0384 28.072 61.5478 27.952 61.1264 27.712C60.7104 27.472 60.3904 27.1333 60.1664 26.696C59.9424 26.2533 59.8304 25.736 59.8304 25.144C59.8304 24.5573 59.9424 24.0453 60.1664 23.608C60.3904 23.1653 60.7104 22.8267 61.1264 22.592C61.5478 22.352 62.0384 22.232 62.5984 22.232C62.9824 22.232 63.3424 22.2933 63.6784 22.416C64.0198 22.5333 64.3024 22.6987 64.5264 22.912L64.1904 23.664C63.9344 23.456 63.6784 23.3067 63.4224 23.216C63.1718 23.12 62.9024 23.072 62.6144 23.072C62.0651 23.072 61.6384 23.2507 61.3344 23.608C61.0358 23.9653 60.8864 24.4773 60.8864 25.144C60.8864 25.816 61.0358 26.3333 61.3344 26.696C61.6331 27.0533 62.0598 27.232 62.6144 27.232C62.9024 27.232 63.1718 27.1867 63.4224 27.096C63.6784 27 63.9344 26.848 64.1904 26.64L64.5264 27.392C64.3024 27.6053 64.0198 27.7733 63.6784 27.896C63.3424 28.0133 62.9824 28.072 62.5984 28.072ZM69.1734 26.664H66.3894L65.8134 28H64.7734L67.3494 22.304H68.1894L70.7734 28H69.7414L69.1734 26.664ZM68.8294 25.864L67.7814 23.424L66.7334 25.864H68.8294ZM72.0223 23.152H70.1663V22.304H74.9263V23.152H73.0623V28H72.0223V23.152ZM75.6394 22.304H76.6714V28H75.6394V22.304ZM80.4331 28.072C79.8837 28.072 79.4037 27.9547 78.9931 27.72C78.5877 27.48 78.2731 27.1413 78.0491 26.704C77.8304 26.2613 77.7211 25.7413 77.7211 25.144C77.7211 24.552 77.8304 24.0373 78.0491 23.6C78.2677 23.1573 78.5797 22.8187 78.9851 22.584C79.3957 22.3493 79.8784 22.232 80.4331 22.232C80.9877 22.232 81.4677 22.3493 81.8731 22.584C82.2837 22.8187 82.5957 23.1573 82.8091 23.6C83.0277 24.0373 83.1371 24.552 83.1371 25.144C83.1371 25.7413 83.0277 26.2613 82.8091 26.704C82.5904 27.1413 82.2784 27.48 81.8731 27.72C81.4677 27.9547 80.9877 28.072 80.4331 28.072ZM80.4331 27.248C80.9611 27.248 81.3717 27.0667 81.6651 26.704C81.9584 26.3413 82.1051 25.8213 82.1051 25.144C82.1051 24.472 81.9584 23.9573 81.6651 23.6C81.3717 23.2373 80.9611 23.056 80.4331 23.056C79.9051 23.056 79.4944 23.2347 79.2011 23.592C78.9077 23.9493 78.7611 24.4667 78.7611 25.144C78.7611 25.8213 78.9077 26.3413 79.2011 26.704C79.4944 27.0667 79.9051 27.248 80.4331 27.248ZM88.9941 22.304V28H88.2261L85.1541 24.008V28H84.1941V22.304H84.9621L88.0261 26.288V22.304H88.9941ZM92.1612 28.072C91.7239 28.072 91.3132 28.0133 90.9292 27.896C90.5505 27.7787 90.2279 27.6107 89.9612 27.392L90.3132 26.64C90.5905 26.848 90.8785 27.0027 91.1772 27.104C91.4812 27.2 91.8119 27.248 92.1692 27.248C92.5639 27.248 92.8679 27.1787 93.0812 27.04C93.2999 26.9013 93.4092 26.7067 93.4092 26.456C93.4092 26.2427 93.3079 26.08 93.1052 25.968C92.9079 25.8507 92.5799 25.7413 92.1212 25.64C91.4065 25.4853 90.8865 25.2853 90.5612 25.04C90.2359 24.7947 90.0732 24.4373 90.0732 23.968C90.0732 23.632 90.1639 23.3333 90.3452 23.072C90.5265 22.8107 90.7825 22.6053 91.1132 22.456C91.4492 22.3067 91.8359 22.232 92.2732 22.232C92.6732 22.232 93.0519 22.2933 93.4092 22.416C93.7719 22.5333 94.0679 22.6987 94.2972 22.912L93.9532 23.664C93.4465 23.2587 92.8865 23.056 92.2732 23.056C91.9052 23.056 91.6145 23.1333 91.4012 23.288C91.1879 23.4373 91.0812 23.6427 91.0812 23.904C91.0812 24.128 91.1745 24.2987 91.3612 24.416C91.5532 24.5333 91.8785 24.6427 92.3372 24.744C92.8119 24.856 93.1985 24.9787 93.4972 25.112C93.7959 25.24 94.0252 25.408 94.1852 25.616C94.3452 25.8187 94.4252 26.0747 94.4252 26.384C94.4252 26.7253 94.3345 27.024 94.1532 27.28C93.9719 27.5307 93.7105 27.7253 93.3692 27.864C93.0279 28.0027 92.6252 28.072 92.1612 28.072ZM100.105 28.072C99.5556 28.072 99.0756 27.9547 98.6649 27.72C98.2596 27.48 97.9449 27.1413 97.7209 26.704C97.5023 26.2613 97.3929 25.7413 97.3929 25.144C97.3929 24.552 97.5023 24.0373 97.7209 23.6C97.9396 23.1573 98.2516 22.8187 98.6569 22.584C99.0676 22.3493 99.5503 22.232 100.105 22.232C100.66 22.232 101.14 22.3493 101.545 22.584C101.956 22.8187 102.268 23.1573 102.481 23.6C102.7 24.0373 102.809 24.552 102.809 25.144C102.809 25.7413 102.7 26.2613 102.481 26.704C102.262 27.1413 101.95 27.48 101.545 27.72C101.14 27.9547 100.66 28.072 100.105 28.072ZM100.105 27.248C100.633 27.248 101.044 27.0667 101.337 26.704C101.63 26.3413 101.777 25.8213 101.777 25.144C101.777 24.472 101.63 23.9573 101.337 23.6C101.044 23.2373 100.633 23.056 100.105 23.056C99.5769 23.056 99.1663 23.2347 98.8729 23.592C98.5796 23.9493 98.4329 24.4667 98.4329 25.144C98.4329 25.8213 98.5796 26.3413 98.8729 26.704C99.1663 27.0667 99.5769 27.248 100.105 27.248ZM103.866 22.304H106.338C106.951 22.304 107.429 22.4533 107.77 22.752C108.111 23.0453 108.282 23.448 108.282 23.96C108.282 24.472 108.109 24.8773 107.762 25.176C107.421 25.4747 106.946 25.624 106.338 25.624H104.898V28H103.866V22.304ZM106.218 24.824C106.575 24.824 106.845 24.752 107.026 24.608C107.213 24.4587 107.306 24.2453 107.306 23.968C107.306 23.6853 107.215 23.472 107.034 23.328C106.853 23.1787 106.581 23.104 106.218 23.104H104.898V24.824H106.218ZM109.194 22.304H113.002V23.12H110.202V24.696H112.834V25.512H110.202V27.184H113.002V28H109.194V22.304ZM118.752 22.304V28H117.984L114.912 24.008V28H113.952V22.304H114.72L117.784 26.288V22.304H118.752Z" fill="#FFCF70"/>
<rect width="28" height="28" rx="2" fill="white"/>
<path d="M12.7687 9.55024L3.49023 23.9611L26.9943 23.9951L13.716 8.67383L12.7687 9.55024Z" fill="#414142"/>
<path d="M17.9179 4.95032L16.4668 4L2.38085 22.1437L3.832 23.0941L17.9179 4.95032Z" fill="#414142"/>
<path d="M24.1006 23.0948L25.5518 22.1445L12.3997 5.20368L10.9485 6.15399L24.1006 23.0948Z" fill="#EE4823"/>
<path d="M13.8789 9.82423C13.8789 9.82423 14.1232 13.6096 12.3409 18.8649C11.587 20.973 10.6791 22.6886 9.22227 23.9947C5.62416 23.9947 1 23.9319 1 23.9319L12.8702 8.63086L13.8789 9.82423Z" fill="#F2AB1D"/>
<path d="M13.9698 8.94141C13.9698 8.94141 12.5801 12.363 16.4446 18.5139C20.3634 23.7171 27.0003 24 27.0003 24L15.73 9.4998L13.9698 8.94141Z" fill="#EE4823"/>
</svg>
